<svg class="svg-icon" style="width: 1em; height: 1em;vertical-align: middle;fill: currentColor;overflow: hidden;" viewBox="0 0 1024 1024" version="1.1" xmlns="http://www.w3.org/2000/svg"><path d="M588.8 716.8h-409.6c-42.3424 0-76.8-34.4576-76.8-76.8v-409.6C102.4 188.0576 136.8576 153.6 179.2 153.6h665.6c42.3424 0 76.8 34.4576 76.8 76.8v51.2a25.6 25.6 0 0 1-51.2 0v-51.2a25.6 25.6 0 0 0-25.6-25.6h-665.6a25.6 25.6 0 0 0-25.6 25.6v409.6a25.6 25.6 0 0 0 25.6 25.6h409.6a25.6 25.6 0 0 1 0 51.2zM588.8 921.6h-512C34.4576 921.6 0 887.1424 0 844.8v-51.2a25.6 25.6 0 0 1 25.6-25.6h563.2a25.6 25.6 0 0 1 0 51.2H51.2v25.6a25.6 25.6 0 0 0 25.6 25.6h512a25.6 25.6 0 0 1 0 51.2z" fill="" /><path d="M947.2 921.6h-204.8c-42.3424 0-76.8-34.4576-76.8-76.8v-409.6c0-42.3424 34.4576-76.8 76.8-76.8h204.8c42.3424 0 76.8 34.4576 76.8 76.8v409.6c0 42.3424-34.4576 76.8-76.8 76.8z m-204.8-512a25.6 25.6 0 0 0-25.6 25.6v409.6a25.6 25.6 0 0 0 25.6 25.6h204.8a25.6 25.6 0 0 0 25.6-25.6v-409.6a25.6 25.6 0 0 0-25.6-25.6h-204.8z" fill="" /><path d="M844.8 819.2a25.4976 25.4976 0 0 1-25.6-25.6 25.4976 25.4976 0 0 1 25.6-25.6 25.4976 25.4976 0 0 1 25.6 25.6 25.4976 25.4976 0 0 1-25.6 25.6z" fill="" /></svg>