<?xml version="1.0" encoding="utf-8"?>
<!-- Generator: Adobe Illustrator 23.1.0, SVG Export Plug-In . SVG Version: 6.00 Build 0)  -->
<svg version="1.1" id="Layer_1" xmlns="http://www.w3.org/2000/svg" xmlns:xlink="http://www.w3.org/1999/xlink" x="0px" y="0px"
	 viewBox="0 0 979.7 470.8" style="enable-background:new 0 0 979.7 470.8;" xml:space="preserve" >
<style type="text/css">
	.st0{fill:#FFFFFF;}
	.st1{fill:#0071BC;}
	.st2{fill:none;}
</style>
<path class="st0" d="M3.5,372.5v-59.4c-0.2,0-0.3,0.1-0.5,0.1c-0.2,0-0.3,0-0.5-0.1v59.4c0.2,0,0.3-0.1,0.5-0.1
	C3.2,372.4,3.3,372.5,3.5,372.5z"/>
<path class="st0" d="M3.5,312.2c0.9-0.2,1.6-1.1,1.6-2.1c0-0.5-0.2-0.9-0.5-1.3l-1.2,1.5V312.2z"/>
<path class="st0" d="M2.6,309.8l1.3-1.6C3.6,308,3.3,308,3,308c-1.2,0-2.1,1-2.1,2.1c0,1,0.7,1.9,1.6,2.1v-2.3L2.6,309.8z"/>
<path class="st0" d="M3.9,308.2l-1.3,1.6l-0.1,0.1v2.3c0.2,0,0.3,0.1,0.5,0.1c0.2,0,0.3,0,0.5-0.1v-1.9l1.2-1.5
	C4.5,308.5,4.2,308.3,3.9,308.2z"/>
<path class="st0" d="M6,310.1c0-0.8-0.3-1.4-0.8-2L5,308.5c0.4,0.4,0.6,1,0.6,1.6c0,1.2-0.9,2.3-2.1,2.5v0.4
	C4.9,312.8,6,311.6,6,310.1z"/>
<path class="st0" d="M0.4,310.1c0-1.4,1.2-2.6,2.6-2.6c0.4,0,0.8,0.1,1.2,0.3l0.3-0.3c-0.4-0.2-0.9-0.4-1.5-0.4c-1.7,0-3,1.3-3,3
	c0,1.5,1.1,2.7,2.5,2.9v-0.4C1.3,312.4,0.4,311.4,0.4,310.1z"/>
<path class="st0" d="M3.5,313.1v-0.4c-0.2,0-0.3,0.1-0.5,0.1c-0.2,0-0.3,0-0.5-0.1v0.4c0.2,0,0.3,0.1,0.5,0.1
	C3.2,313.1,3.3,313.1,3.5,313.1z"/>
<path class="st0" d="M5,308.5l0.3-0.3c-0.2-0.3-0.5-0.5-0.8-0.6l-0.3,0.3C4.5,308,4.7,308.2,5,308.5z"/>
<path class="st0" d="M5.6,310.1c0-0.6-0.2-1.2-0.6-1.6l-0.3,0.3c0.3,0.4,0.5,0.8,0.5,1.3c0,1-0.7,1.9-1.6,2.1v0.4
	C4.7,312.4,5.6,311.4,5.6,310.1z"/>
<path class="st0" d="M0.9,310.1c0-1.2,1-2.1,2.1-2.1c0.3,0,0.6,0.1,0.9,0.2l0.3-0.3c-0.4-0.2-0.8-0.3-1.2-0.3
	c-1.4,0-2.6,1.2-2.6,2.6c0,1.2,0.9,2.3,2.1,2.5v-0.4C1.6,312,0.9,311.1,0.9,310.1z"/>
<path class="st0" d="M3,312.2c-0.2,0-0.3,0-0.5-0.1v0.4c0.2,0,0.3,0.1,0.5,0.1c0.2,0,0.3,0,0.5-0.1v-0.4
	C3.3,312.2,3.2,312.2,3,312.2z"/>
<path class="st0" d="M4.7,308.8l0.3-0.3c-0.2-0.3-0.5-0.5-0.8-0.6l-0.3,0.3C4.2,308.3,4.5,308.5,4.7,308.8z"/>
<path class="st0" d="M2.5,373.4c-0.9,0.2-1.6,1.1-1.6,2.1c0,1.2,1,2.1,2.1,2.1c1,0,1.9-0.7,2.1-1.6H2.5V373.4z"/>
<path class="st0" d="M5.1,374.9c-0.2-0.8-0.8-1.4-1.6-1.6v1.6H5.1z"/>
<path class="st0" d="M2.5,373.4v2.6h2.6c0-0.2,0.1-0.3,0.1-0.5s0-0.3-0.1-0.5H3.5v-1.6c-0.2,0-0.3-0.1-0.5-0.1
	C2.8,373.3,2.7,373.3,2.5,373.4z"/>
<path class="st1" d="M3,378c-1.4,0-2.6-1.2-2.6-2.6c0-1.2,0.9-2.3,2.1-2.5v-0.4C1.1,372.7,0,374,0,375.4c0,1.7,1.3,3,3,3
	c1.5,0,2.7-1.1,2.9-2.5H5.5C5.3,377.1,4.2,378,3,378z"/>
<path class="st1" d="M3.5,372.5v0.4c1,0.2,1.8,1,2,2h0.4C5.7,373.7,4.8,372.7,3.5,372.5z"/>
<path class="st1" d="M5.9,374.9H5.5c0,0.2,0.1,0.3,0.1,0.5s0,0.3-0.1,0.5h0.4c0-0.2,0.1-0.3,0.1-0.5S6,375.1,5.9,374.9z"/>
<path class="st1" d="M3,372.9c0.2,0,0.3,0,0.5,0.1v-0.4c-0.2,0-0.3-0.1-0.5-0.1c-0.2,0-0.3,0-0.5,0.1v0.4
	C2.7,372.9,2.8,372.9,3,372.9z"/>
<path class="st1" d="M3.5,372.9v0.4c0.8,0.2,1.4,0.8,1.6,1.6h0.4C5.3,373.9,4.5,373.1,3.5,372.9z"/>
<path class="st1" d="M3,377.6c-1.2,0-2.1-1-2.1-2.1c0-1,0.7-1.9,1.6-2.1v-0.4c-1.2,0.2-2.1,1.3-2.1,2.5c0,1.4,1.2,2.6,2.6,2.6
	c1.2,0,2.3-0.9,2.5-2.1H5.1C4.9,376.9,4,377.6,3,377.6z"/>
<path class="st1" d="M3,373.3c0.2,0,0.3,0,0.5,0.1v-0.4c-0.2,0-0.3-0.1-0.5-0.1c-0.2,0-0.3,0-0.5,0.1v0.4
	C2.7,373.3,2.8,373.3,3,373.3z"/>
<path class="st1" d="M5.1,375.4c0,0.2,0,0.3-0.1,0.5h0.4c0-0.2,0.1-0.3,0.1-0.5s0-0.3-0.1-0.5H5.1C5.1,375.1,5.1,375.3,5.1,375.4z"
	/>
<g>
	<path class="st2" d="M486.6,461.5c0.3-1.4,1.5-2.5,2.9-2.5c1.5,0,2.7,1.1,2.9,2.5c16.5-0.2,31.3-1.9,44.5-5.2h-94.2
		C455.8,459.6,470.5,461.4,486.6,461.5z"/>
	<path class="st2" d="M600.4,149.1c11.3,15.1,19.6,34,24.6,56.2l4.1,20l0.8,0.6V103.3H511.4c17.1,1.6,32.1,5.2,44.8,10.7
		C574.1,121.8,589,133.6,600.4,149.1z"/>
	<path class="st2" d="M167.1,311.9c0.2-1.3,1.2-2.2,2.4-2.4v-119c-0.3-0.1-0.7-0.2-1-0.3L71.8,310.4c0.4,0.4,0.6,0.9,0.7,1.5H167.1z
		"/>
	<path class="st2" d="M539.6,282.2c0-1.5,1.1-2.7,2.5-2.9c-0.2-39.9-4.3-68.9-12.2-86c-7.6-16.5-20.2-25.3-37.4-26.2
		c-0.3,1.4-1.5,2.4-2.9,2.4s-2.7-1-2.9-2.4c-17.2,0.9-29.8,9.7-37.4,26.2c-7.9,17.1-12,46.2-12.2,86.5c1.4,0.2,2.5,1.5,2.5,2.9
		c0,1.5-1.1,2.7-2.5,2.9c0.2,39.2,4.4,67.9,12.5,85.4c7.8,16.8,20.3,25.8,37.1,26.7c0.3-1.4,1.5-2.4,2.9-2.4s2.7,1,2.9,2.4
		c16.9-0.9,29.4-9.9,37.1-26.7c8.1-17.5,12.3-46.4,12.5-85.9C540.6,284.9,539.6,283.7,539.6,282.2z"/>
	<path class="st2" d="M843.9,309.5V190.4c-0.2-0.1-0.5-0.2-0.7-0.3l-96.8,120.3c0.4,0.4,0.6,0.9,0.7,1.5h94.5
		C841.9,310.8,842.8,309.8,843.9,309.5z"/>
	<path class="st2" d="M843.9,373.1v-57.8c-1.1-0.3-2-1.2-2.2-2.4h-94.5c-0.2,1.4-1.5,2.5-2.9,2.5c-1.7,0-3-1.3-3-3c0-1.7,1.3-3,3-3
		c0.5,0,1,0.2,1.5,0.4l96.8-120.3c-0.5-0.5-0.8-1.2-0.8-2c0-1.4,1-2.6,2.2-2.9v-74.2H842c-0.2,1.4-1.5,2.5-2.9,2.5
		c-0.5,0-1-0.2-1.5-0.4L679.9,308.1c0.5,0.5,0.8,1.2,0.8,2c0,1.5-1.1,2.7-2.5,2.9v59.4c1.3,0.2,2.2,1.2,2.4,2.4h161.5l-0.4-3.5
		L843.9,373.1z"/>
	<path class="st2" d="M847.6,455.3h79.1c0.2-1.3,1.2-2.2,2.4-2.4v-74.5c-1.4-0.2-2.5-1.5-2.5-2.9c0-1.7,1.3-3,3-3
		c1.5,0,2.7,1.1,2.9,2.5h41.1c0.2-1.3,1.2-2.2,2.4-2.4v-57.1c-1.3-0.2-2.2-1.2-2.4-2.4h-41.1c-0.2,1.4-1.5,2.5-2.9,2.5
		c-1.7,0-3-1.3-3-3c0-1.5,1.1-2.7,2.5-2.9V112.9c-1.3-0.2-2.2-1.2-2.4-2.4h-81.8v74.1c1.5,0.1,2.8,1.4,2.8,3c0,1.5-1.1,2.7-2.5,2.9
		v119c1.4,0.2,2.5,1.5,2.5,2.9c0,1.6-1.2,2.8-2.8,3v58.4l0.9,0.7H905v1h-57.8l5.8,4.3l-5.8,1.1l-2,2.4v69.6
		C846.4,453.1,847.4,454.1,847.6,455.3z"/>
	<path class="st0" d="M977.2,372.5v-57.1c1.4-0.2,2.5-1.5,2.5-2.9c0-1.7-1.3-3-3-3c-1.5,0-2.7,1.1-2.9,2.5h-41.1
		c-0.2-1.3-1.2-2.2-2.4-2.4V112.9c1.4-0.2,2.5-1.5,2.5-2.9c0-1.7-1.3-3-3-3c-1.5,0-2.7,1.1-2.9,2.5h-81.8V5.8l3.4,3.4l0.7-0.7
		l-3.9-3.9l3.9-3.9L848.3,0l-3.9,3.9L840.5,0l-0.7,0.7l3.9,3.9l-3.9,3.9l0.7,0.7l3.4-3.4v103.6H842c-0.2-1.4-1.5-2.5-2.9-2.5
		c-1.7,0-3,1.3-3,3c0,0.8,0.3,1.4,0.8,2L679.1,307.5c-0.4-0.2-0.9-0.4-1.5-0.4c-1.7,0-3,1.3-3,3c0,1.5,1.1,2.7,2.5,2.9v59.4
		c-1.4,0.2-2.5,1.5-2.5,2.9c0,1.7,1.3,3,3,3c1.5,0,2.7-1.1,2.9-2.5h161.6l1.1,9.5l0.8-1v68.4c-1.4,0.2-2.5,1.5-2.5,2.9
		c0,1.7,1.3,3,3,3c1.5,0,2.7-1.1,2.9-2.5h79.1c0.2,1.4,1.5,2.5,2.9,2.5c1.7,0,3-1.3,3-3c0-1.5-1.1-2.7-2.5-2.9v-74.5
		c1.3-0.2,2.2-1.2,2.4-2.4h41.1c0.2,1.4,1.5,2.5,2.9,2.5c1.7,0,3-1.3,3-3C979.7,374,978.6,372.7,977.2,372.5z M747.2,311.9
		c-0.1-0.6-0.3-1.1-0.7-1.5l96.8-120.3c0.2,0.1,0.5,0.2,0.7,0.3v119.1c-1.1,0.3-2,1.2-2.2,2.4H747.2z M680.6,374.9
		c-0.2-1.3-1.2-2.2-2.4-2.4v-59.4c1.4-0.2,2.5-1.5,2.5-2.9c0-0.8-0.3-1.4-0.8-2l157.8-195.6c0.4,0.2,0.9,0.4,1.5,0.4
		c1.5,0,2.7-1.1,2.9-2.5h1.9v74.2c-1.3,0.3-2.2,1.5-2.2,2.9c0,0.8,0.3,1.5,0.8,2l-96.8,120.3c-0.4-0.2-0.9-0.4-1.5-0.4
		c-1.7,0-3,1.3-3,3c0,1.7,1.3,3,3,3c1.5,0,2.7-1.1,2.9-2.5h94.5c0.2,1.2,1.1,2.1,2.2,2.4v57.8l-2.3-1.7l0.4,3.5H680.6z M847.1,380.9
		l5.8-1.1l-5.8-4.3H905v-1h-59.1l-0.9-0.7v-58.4c1.5-0.1,2.8-1.4,2.8-3c0-1.5-1.1-2.7-2.5-2.9v-119c1.4-0.2,2.5-1.5,2.5-2.9
		c0-1.6-1.2-2.8-2.8-3v-74.1h81.8c0.2,1.3,1.2,2.2,2.4,2.4v196.6c-1.4,0.2-2.5,1.5-2.5,2.9c0,1.7,1.3,3,3,3c1.5,0,2.7-1.1,2.9-2.5
		h41.1c0.2,1.3,1.2,2.2,2.4,2.4v57.1c-1.3,0.2-2.2,1.2-2.4,2.4h-41.1c-0.2-1.4-1.5-2.5-2.9-2.5c-1.7,0-3,1.3-3,3
		c0,1.5,1.1,2.7,2.5,2.9v74.5c-1.3,0.2-2.2,1.2-2.4,2.4h-79.1c-0.2-1.3-1.2-2.2-2.4-2.4v-69.6L847.1,380.9z"/>
	<path class="st0" d="M556,451.1c17.9-7.6,32.8-19.1,44.2-34.1c11.1-14.7,19.4-33.7,24.6-56.6c5.1-22.1,7.7-47.4,7.9-75.2
		c1.4-0.2,2.5-1.5,2.5-3c0-1.7-1.3-3-3-3s-3,1.3-3,3c0,1.5,1.1,2.7,2.5,2.9c-0.2,27.7-2.8,52.9-7.8,74.9
		c-5.2,22.8-13.4,41.7-24.5,56.3c-11.3,14.9-26.1,26.2-43.8,33.8c-4.7,2-9.6,3.7-14.9,5.2H438.9c-5.4-1.5-10.5-3.3-15.3-5.3
		c-18.1-7.7-32.9-19.1-44-34.1c-11.3-15-19.6-33.9-24.7-56.3c-4.9-21.6-7.4-46.6-7.6-74.3c1.4-0.2,2.5-1.5,2.5-2.9s-1.1-2.7-2.5-2.9
		c0.2-28.6,2.8-53.8,7.8-75.1c5.2-21.9,13.6-40.7,24.9-55.9c11.3-15,26.2-26.4,44.3-33.9c17.4-7.2,38.3-11,62.2-11.3
		c0.3,1.4,1.5,2.5,2.9,2.5c1.5,0,2.7-1.1,2.9-2.5c24.9,0.3,46.2,4.2,63.3,11.6c17.7,7.7,32.5,19.4,43.8,34.7
		c11.2,15,19.4,33.8,24.5,55.8l3.8,18.9l-1.3-0.9l1.7,14l3.8-4.5l5.8-1.1l-7.1-5.3V103.3h8.1c0.2,1.4,1.5,2.5,2.9,2.5
		c1.7,0,3-1.3,3-3c0-1.7-1.3-3-3-3c-1.5,0-2.7,1.1-2.9,2.5h-8.1V5.8l3.4,3.4l0.7-0.7l-3.9-3.9l3.9-3.9L634.3,0l-3.9,3.9L626.5,0
		l-0.7,0.7l3.9,3.9l-3.9,3.9l0.7,0.7l3.4-3.4v96.5H492.5c-0.2-1.4-1.5-2.5-2.9-2.5s-2.7,1.1-2.9,2.5H349.9c-0.2-1.4-1.5-2.5-2.9-2.5
		c-1.7,0-3,1.3-3,3c0,1.7,1.3,3,3,3c1.5,0,2.7-1.1,2.9-2.5h118.2c-16.5,1.6-31.2,5.1-44.1,10.4c-18.2,7.6-33.3,19.1-44.7,34.2
		c-11.4,15.3-19.9,34.2-25.1,56.3c-5.1,21.3-7.7,46.6-7.9,75.3c-1.4,0.2-2.5,1.5-2.5,3s1.1,2.7,2.5,3c0.2,27.8,2.7,52.8,7.6,74.5
		c5.1,22.5,13.5,41.5,24.9,56.6c11.3,15.1,26.2,26.7,44.5,34.5c3.9,1.6,7.9,3.1,12.1,4.4H307.2H301h-4.8v1h4.8h6.3h131.6
		c14.1,3.9,30.1,6,47.7,6.2c0.2,1.4,1.5,2.5,3,2.5c1.5,0,2.7-1.1,3-2.5c18.1-0.2,34.3-2.3,48.4-6.2H789v-1H544.2
		C548.3,454.1,552.2,452.6,556,451.1z M629.9,103.3v122.6l-0.8-0.6l-4.1-20c-5.1-22.1-13.4-41-24.6-56.2
		c-11.4-15.5-26.3-27.2-44.2-35c-12.7-5.5-27.7-9.1-44.8-10.7H629.9z M492.5,461.6c-0.3-1.4-1.5-2.5-2.9-2.5c-1.5,0-2.7,1.1-2.9,2.5
		c-16.1-0.2-30.7-1.9-43.9-5.2h94.2C523.8,459.6,508.9,461.4,492.5,461.6z"/>
	<path class="st0" d="M530.7,192.8c-7.8-16.9-20.7-25.9-38.3-26.8c-0.2-1.5-1.4-2.6-3-2.6s-2.8,1.1-3,2.6
		c-17.6,0.9-30.5,9.9-38.3,26.8c-8,17.3-12.1,46.5-12.3,86.9c-1.4,0.2-2.5,1.5-2.5,3c0,1.5,1.1,2.7,2.5,3
		c0.2,39.3,4.4,68.2,12.5,85.8c7.9,17.2,20.7,26.4,38,27.3c0.2,1.5,1.4,2.6,3,2.6s2.8-1.1,3-2.6c17.3-0.9,30.1-10.1,38-27.3
		c8.1-17.6,12.3-46.7,12.5-86.3c1.4-0.2,2.5-1.5,2.5-3c0-1.5-1.1-2.7-2.5-3C542.9,239.1,538.7,210.1,530.7,192.8z M529.6,371
		c-7.8,16.8-20.3,25.8-37.1,26.7c-0.3-1.4-1.5-2.4-2.9-2.4s-2.7,1-2.9,2.4c-16.9-0.9-29.4-9.9-37.1-26.7
		c-8.1-17.5-12.3-46.2-12.5-85.4c1.4-0.2,2.5-1.5,2.5-2.9c0-1.5-1.1-2.7-2.5-2.9c0.2-40.3,4.3-69.3,12.2-86.5
		c7.6-16.5,20.2-25.3,37.4-26.2c0.3,1.4,1.5,2.4,2.9,2.4s2.7-1,2.9-2.4c17.2,0.9,29.7,9.7,37.4,26.2c7.9,17.1,12,46.1,12.2,86
		c-1.4,0.2-2.5,1.5-2.5,2.9s1.1,2.7,2.5,2.9C541.9,324.6,537.7,353.5,529.6,371z"/>
	<path class="st0" d="M255.6,452.9v-74.5c1.3-0.2,2.2-1.2,2.4-2.4h41.1c0.2,1.4,1.5,2.5,2.9,2.5c1.7,0,3-1.3,3-3
		c0-1.5-1.1-2.7-2.5-2.9v-57.1c1.4-0.2,2.5-1.5,2.5-2.9c0-1.7-1.3-3-3-3c-1.5,0-2.7,1.1-2.9,2.5H258c-0.2-1.3-1.2-2.2-2.4-2.4V112.9
		c1.4-0.2,2.5-1.5,2.5-2.9c0-1.7-1.3-3-3-3c-1.5,0-2.7,1.1-2.9,2.5h-84.7c-0.2-1.4-1.5-2.5-2.9-2.5c-1.7,0-3,1.3-3,3
		c0,0.8,0.3,1.4,0.8,2L4.5,307.5c0.3,0.2,0.6,0.4,0.8,0.6L163,112.5c0.4,0.2,0.9,0.4,1.5,0.4c1.5,0,2.7-1.1,2.9-2.5h84.7
		c0.2,1.3,1.2,2.2,2.4,2.4v196.6c-1.4,0.2-2.5,1.5-2.5,2.9c0,1.7,1.3,3,3,3c1.5,0,2.7-1.1,2.9-2.5h41.1c0.2,1.3,1.2,2.2,2.4,2.4
		v57.1c-1.3,0.2-2.2,1.2-2.4,2.4H258c-0.2-1.4-1.5-2.5-2.9-2.5c-1.7,0-3,1.3-3,3c0,1.5,1.1,2.7,2.5,2.9v74.5
		c-1.3,0.2-2.2,1.2-2.4,2.4H173c-0.2-1.3-1.2-2.2-2.4-2.4v-74.5c1.4-0.2,2.5-1.5,2.5-2.9c0-1.7-1.3-3-3-3c-1.5,0-2.7,1.1-2.9,2.5
		H5.9c0,0.2,0.1,0.3,0.1,0.5s0,0.3-0.1,0.5h161.1c0.2,1.3,1.2,2.2,2.4,2.4v74.5c-1.4,0.2-2.5,1.5-2.5,2.9c0,1.7,1.3,3,3,3
		c1.5,0,2.7-1.1,2.9-2.5h79.1c0.2,1.4,1.5,2.5,2.9,2.5c1.7,0,3-1.3,3-3C258.1,454.3,257,453.1,255.6,452.9z"/>
	<path class="st0" d="M69.6,309.4c-1.7,0-3,1.3-3,3c0,1.7,1.3,3,3,3c1.5,0,2.7-1.1,2.9-2.5h94.5c0.2,1.4,1.5,2.5,2.9,2.5
		c1.7,0,3-1.3,3-3c0-1.5-1.1-2.7-2.5-2.9v-119c1.4-0.2,2.5-1.5,2.5-2.9c0-1.7-1.3-3-3-3c-1.7,0-3,1.3-3,3c0,0.8,0.3,1.5,0.8,2
		L71,309.8C70.6,309.6,70.1,309.4,69.6,309.4z M168.6,190.1c0.3,0.2,0.6,0.3,1,0.3v119c-1.3,0.2-2.2,1.2-2.4,2.4H72.5
		c-0.1-0.6-0.3-1.1-0.7-1.5L168.6,190.1z"/>
	<rect x="277.2" y="455.3" class="st0" width="11" height="1"/>
	<rect x="291.7" y="459.8" class="st0" width="1" height="11"/>
	<rect x="291.7" y="440.8" class="st0" width="1" height="11"/>
	<circle class="st0" cx="292.2" cy="455.8" r="1"/>
</g>
</svg>
